<svg xmlns="http://www.w3.org/2000/svg" width="1200" height="340" viewBox="0 0 1200 340" fill="none">
  <rect width="1200" height="340" fill="#0A0F1D"/>
  <text x="32" y="48" fill="#E5E7EB" font-family="Segoe UI, Arial, sans-serif" font-size="30" font-weight="700">d4f Canonical Frame Pipeline</text>

  <g font-family="Segoe UI, Arial, sans-serif" font-size="16" font-weight="700">
    <rect x="30" y="90" width="130" height="72" rx="10" fill="#1D4ED8"/><text x="51" y="132" fill="#DBEAFE">PumpEvents</text>
    <rect x="180" y="90" width="130" height="72" rx="10" fill="#2563EB"/><text x="215" y="132" fill="#DBEAFE">Timing</text>
    <rect x="330" y="90" width="140" height="72" rx="10" fill="#7C3AED"/><text x="350" y="132" fill="#EDE9FE">PrePhysics</text>
    <rect x="490" y="90" width="190" height="72" rx="10" fill="#9333EA"/><text x="507" y="132" fill="#F3E8FF">Physics Sync+Step</text>
    <rect x="700" y="90" width="150" height="72" rx="10" fill="#C026D3"/><text x="721" y="132" fill="#FDF4FF">PostPhysics</text>
    <rect x="870" y="90" width="120" height="72" rx="10" fill="#DB2777"/><text x="918" y="132" fill="#FFE4E6">UI</text>
    <rect x="1010" y="90" width="160" height="72" rx="10" fill="#E11D48"/><text x="1029" y="132" fill="#FFE4E6">PreRender</text>
  </g>

  <g font-family="Segoe UI, Arial, sans-serif" font-size="16" font-weight="700">
    <rect x="30" y="210" width="200" height="78" rx="10" fill="#0369A1"/>
    <text x="46" y="256" fill="#E0F2FE">Build RenderPacket</text>
    <rect x="250" y="210" width="150" height="78" rx="10" fill="#0E7490"/>
    <text x="294" y="256" fill="#CCFBF1">Submit</text>
    <rect x="420" y="210" width="150" height="78" rx="10" fill="#0F766E"/>
    <text x="468" y="256" fill="#CCFBF1">Present</text>
    <rect x="590" y="210" width="260" height="78" rx="10" fill="#166534"/>
    <text x="609" y="256" fill="#DCFCE7">Frame Observability Snapshot</text>
    <rect x="870" y="210" width="300" height="78" rx="10" fill="#111827" stroke="#4B5563" stroke-width="2"/>
    <text x="890" y="256" fill="#E5E7EB">RenderGraph: shadow→pbr→bloom→tonemap→color</text>
  </g>

  <g stroke="#94A3B8" stroke-width="3">
    <line x1="160" y1="126" x2="180" y2="126"/>
    <line x1="310" y1="126" x2="330" y2="126"/>
    <line x1="470" y1="126" x2="490" y2="126"/>
    <line x1="680" y1="126" x2="700" y2="126"/>
    <line x1="850" y1="126" x2="870" y2="126"/>
    <line x1="990" y1="126" x2="1010" y2="126"/>

    <line x1="1170" y1="162" x2="1170" y2="210"/>
    <line x1="1170" y1="210" x2="30" y2="210"/>
  </g>
</svg>
