<svg xmlns="http://www.w3.org/2000/svg" width="1200" height="520" viewBox="0 0 1200 520" fill="none">
  <rect width="1200" height="520" fill="#0B1020"/>
  <rect x="40" y="40" width="350" height="200" rx="14" fill="#1D4ED8" opacity="0.95"/>
  <text x="64" y="86" fill="#E5E7EB" font-family="Segoe UI, Arial, sans-serif" font-size="26" font-weight="700">Game (C#)</text>
  <text x="64" y="125" fill="#DBEAFE" font-family="Segoe UI, Arial, sans-serif" font-size="18">Gameplay / ECS / UI / Scenes</text>
  <text x="64" y="156" fill="#DBEAFE" font-family="Segoe UI, Arial, sans-serif" font-size="18">Frame orchestration</text>

  <rect x="450" y="40" width="300" height="200" rx="14" fill="#0EA5E9" opacity="0.95"/>
  <text x="472" y="86" fill="#E0F2FE" font-family="Segoe UI, Arial, sans-serif" font-size="26" font-weight="700">C ABI Boundary</text>
  <text x="472" y="125" fill="#E0F2FE" font-family="Segoe UI, Arial, sans-serif" font-size="18">Handle-based contracts</text>
  <text x="472" y="156" fill="#E0F2FE" font-family="Segoe UI, Arial, sans-serif" font-size="18">Batched Render/Physics calls</text>

  <rect x="810" y="40" width="350" height="200" rx="14" fill="#15803D" opacity="0.95"/>
  <text x="832" y="86" fill="#DCFCE7" font-family="Segoe UI, Arial, sans-serif" font-size="26" font-weight="700">Engine Native (C++)</text>
  <text x="832" y="125" fill="#DCFCE7" font-family="Segoe UI, Arial, sans-serif" font-size="18">Platform / Renderer / Physics</text>
  <text x="832" y="156" fill="#DCFCE7" font-family="Segoe UI, Arial, sans-serif" font-size="18">RenderGraph + Content Runtime</text>

  <rect x="40" y="300" width="1120" height="170" rx="14" fill="#111827" stroke="#374151" stroke-width="2"/>
  <text x="64" y="345" fill="#F3F4F6" font-family="Segoe UI, Arial, sans-serif" font-size="24" font-weight="700">Tools</text>
  <rect x="64" y="365" width="220" height="72" rx="10" fill="#7C3AED"/>
  <text x="82" y="408" fill="#F5F3FF" font-family="Segoe UI, Arial, sans-serif" font-size="20" font-weight="700">engine-cli</text>
  <rect x="308" y="365" width="220" height="72" rx="10" fill="#B45309"/>
  <text x="326" y="408" fill="#FFFBEB" font-family="Segoe UI, Arial, sans-serif" font-size="20" font-weight="700">assetc</text>
  <rect x="552" y="365" width="220" height="72" rx="10" fill="#BE123C"/>
  <text x="570" y="408" fill="#FFE4E6" font-family="Segoe UI, Arial, sans-serif" font-size="20" font-weight="700">managed/native tests</text>
  <rect x="796" y="365" width="340" height="72" rx="10" fill="#0F766E"/>
  <text x="814" y="408" fill="#CCFBF1" font-family="Segoe UI, Arial, sans-serif" font-size="20" font-weight="700">packaging + observability</text>

  <line x1="390" y1="140" x2="450" y2="140" stroke="#93C5FD" stroke-width="4"/>
  <polygon points="450,140 438,133 438,147" fill="#93C5FD"/>
  <line x1="750" y1="140" x2="810" y2="140" stroke="#86EFAC" stroke-width="4"/>
  <polygon points="810,140 798,133 798,147" fill="#86EFAC"/>
</svg>
